<svg height='300px' width='300px'  fill="#000000" xmlns="http://www.w3.org/2000/svg" xmlns:xlink="http://www.w3.org/1999/xlink" version="1.1" x="0px" y="0px" viewBox="0 0 64 64" style="enable-background:new 0 0 64 64;" xml:space="preserve"><g><path d="M15.7,17.4c-8,0-14.6,6.5-14.6,14.6c0,8,6.5,14.5,14.6,14.5c8,0,14.5-6.5,14.5-14.5C30.3,23.9,23.8,17.4,15.7,17.4z    M22.8,36.9L21,38.8L16,34.2l-4.7,5l-2.7-2.7l4.9-4.6l-4.9-4.6l2.7-2.7l4.7,5l4.9-4.6l1.8,1.8l-4.7,5L22.8,36.9z"></path><path d="M61.2,16.9l-14-13.7c-0.8-0.8-1.9-1.3-3.1-1.3H25.4c-6.4,0-11.6,5.2-11.6,11.6v2.1c0.6-0.1,1.3-0.1,2-0.1   c0.7,0,1.3,0,2,0.1v-2.1c0-4.2,3.4-7.7,7.7-7.7h18.7c0.1,0,0.2,0,0.3,0.1l0.2,0.2v6.2c0.1,0.8,0.3,1.6,0.6,2.4   c1.3,2.9,4,4.9,7.1,5.3c0.4,0,0.7,0.1,1.1,0.1l5.3,0.2c0.1,0.2,0.1,0.4,0.1,0.5v29.8c0,4.2-3.4,7.7-7.7,7.7H25.4   c-4.2,0-7.7-3.4-7.7-7.7v-2.2c-0.6,0.1-1.3,0.1-2,0.1c-0.7,0-1.3,0-2-0.1v2.2c0,6.4,5.2,11.6,11.6,11.6h25.8   c6.4,0,11.6-5.2,11.6-11.6V20.7C62.8,19.3,62.2,17.9,61.2,16.9z"></path></g></svg>